# xmcd
#
# Track frame offsets:
#	150
#	14901
#	33149
#	46127
#	63127
#	82625
#	107166
#	125620
#	145553
#	162547
#	184473
#	204357
#	209735
#	238224
#
# Disc length: 3430 seconds
#
# Revision: 1
# Processed by: cddbd v1.5.2PL0 Copyright (c) Steve Scherf et al.
# Submitted via: audiograbber 1.83.01
#
DISCID=c40d640e
DTITLE=Robert Plant - Mighty rearranger
DYEAR=1900
DGENRE=
TTITLE0=Another tribe
TTITLE1=Shine it all around
TTITLE2=Freedom fries
TTITLE3=Tin pan valley
TTITLE4=All the king's horses
TTITLE5=The enchanter
TTITLE6=Takamba
TTITLE7=Dancing in heaven
TTITLE8=Somebody knocking
TTITLE9=Let the four winds blow
TTITLE10=Mighty rearranger
TTITLE11=Brother Ray
TTITLE12=Life begins again
TTITLE13=Gallows pole
EXTD=
EXTT0=
EXTT1=
EXTT2=
EXTT3=
EXTT4=
EXTT5=
EXTT6=
EXTT7=
EXTT8=
EXTT9=
EXTT10=
EXTT11=
EXTT12=
EXTT13=
PLAYORDER=
